# xmcd
#
# Track frame offsets:
# 150
# 23016
# 47788
# 67441
# 89164
# 92782
# 114046
# 136441
# 155219
# 183094
# 205942
# 229332
# 231907
# 250390
# 280414
#
# Disc length: 3973 seconds
#
#
# Revision: 7
# Processed by: cddbd v1.5.2PL0 Copyright (c) Steve Scherf et al.
# Submitted via: FreeRIP 2.96 
#
DISCID=e00f830f
DTITLE=PUR - Maechtig viel Theater
DYEAR=1998
DGENRE=Deutsch-Rock
TTITLE0=Wenn Du da bist
TTITLE1=Treib mich weiter
TTITLE2=Mach es nochmal
TTITLE3=Kinder sind tabu
TTITLE4=Merlin's Pummelflug
TTITLE5=Koenigin
TTITLE6=Allein vor dem Spiegel
TTITLE7=Endlich ich
TTITLE8=Gib sie her
TTITLE9=Kleiner Prinz
TTITLE10=Maechtig viel Theater
TTITLE11=Kowalski 6
TTITLE12=Der Dumme
TTITLE13=Ich will raus hier
TTITLE14=Geweint vor Glück
EXTD=YEAR: 1998
EXTT0=
EXTT1=
EXTT2=
EXTT3=
EXTT4=
EXTT5=
EXTT6=
EXTT7=
EXTT8=
EXTT9=
EXTT10=
EXTT11=
EXTT12=
EXTT13=
EXTT14=
PLAYORDER=
